<svg width="65" height="65" viewBox="0 0 65 65" fill="none" xmlns="http://www.w3.org/2000/svg">
<g id="Bootstrap" clip-path="url(#clip0_117435_188)">
<g id="Group">
<path id="Vector" d="M0 56.6189C0 61.2481 3.75236 65 8.38113 65H56.6189C61.2481 65 65 61.2476 65 56.6189V8.38113C65 3.75185 61.2476 0 56.6189 0H8.38113C3.75185 0 0 3.75236 0 8.38113V56.6189Z" fill="#563D7C"/>
<path id="Vector_2" d="M26.9541 28.7519V19.5469H35.0567C35.8283 19.5469 36.5725 19.6112 37.289 19.7398C38.0056 19.8684 38.6394 20.0981 39.1906 20.4288C39.7418 20.7595 40.1828 21.2188 40.5135 21.8068C40.8442 22.3947 41.0096 23.148 41.0096 24.0667C41.0096 25.7203 40.5135 26.9145 39.5214 27.6495C38.5292 28.3844 37.2615 28.7519 35.7181 28.7519H26.9541ZM18.3003 12.8223V52.1777H37.3717C39.1355 52.1777 40.8534 51.9573 42.5254 51.5163C44.1974 51.0753 45.6856 50.3955 46.9901 49.4769C48.2946 48.5582 49.3327 47.3731 50.1043 45.9216C50.876 44.4702 51.2619 42.7523 51.2619 40.768C51.2619 38.3059 50.6647 36.2022 49.4705 34.4568C48.2762 32.7113 46.4665 31.4895 44.0412 30.7913C45.805 29.9461 47.1371 28.8621 48.0374 27.5392C48.9377 26.2163 49.3878 24.5628 49.3878 22.5785C49.3878 20.7411 49.0846 19.1978 48.4783 17.9484C47.872 16.699 47.0177 15.6977 45.9153 14.9444C44.8129 14.1911 43.49 13.6491 41.9466 13.3183C40.4033 12.9876 38.6946 12.8223 36.8205 12.8223H18.3003ZM26.9541 45.4531V34.6497H36.3795C38.2536 34.6497 39.7602 35.0814 40.8994 35.945C42.0385 36.8085 42.6081 38.2508 42.6081 40.2719C42.6081 41.3008 42.4335 42.1459 42.0844 42.8074C41.7353 43.4688 41.2668 43.9925 40.6789 44.3783C40.0909 44.7641 39.4111 45.0397 38.6395 45.2051C37.8678 45.3705 37.0594 45.4531 36.2142 45.4531H26.9541Z" fill="white"/>
</g>
</g>
<defs>
<clipPath id="clip0_117435_188">
<rect width="65" height="65" fill="white"/>
</clipPath>
</defs>
</svg>
