<svg width="29" height="65" viewBox="0 0 29 65" fill="none" xmlns="http://www.w3.org/2000/svg">
<g id="Gulp" clip-path="url(#clip0_117435_192)">
<g id="Group">
<path id="Vector" d="M22.3482 63.0187L22.9629 52.6337L24.6604 49.696C24.6604 49.696 20.7969 51.2983 14.3286 51.2983C7.86027 51.2983 4.05527 49.7257 4.05527 49.7257L5.95771 52.9302L6.63072 63.0187C6.63072 64.1003 10.1491 64.977 14.4895 64.977C18.8296 64.977 22.3482 64.1003 22.3482 63.0187Z" fill="#D34A47"/>
<path id="Vector_2" d="M20.4089 14.522L21.6993 9.35124L28.8452 1.72856L26.9617 0.102295L19.3964 8.22236L17.8981 14.4C16.8125 14.3628 15.6796 14.3429 14.5141 14.3429C6.54631 14.3429 0.0871277 15.2635 0.0871277 16.3988C0.0871277 17.5342 6.54631 18.4547 14.5141 18.4547C22.4817 18.4547 28.9408 17.5342 28.9408 16.3988C28.9408 15.5628 25.4377 14.8432 20.4089 14.522Z" fill="#D34A47"/>
<path id="Vector_3" d="M19.6583 17.4177C19.6583 17.4177 19.3788 17.4812 18.5567 17.4848C17.7344 17.4882 17.1506 17.4794 16.918 17.2646C16.8555 17.207 16.8213 17.0925 16.8216 17.0149C16.8223 16.8674 16.9256 16.7804 17.0572 16.726L17.1817 16.924C17.1276 16.9429 17.0966 16.9653 17.0965 16.9892C17.0961 17.1013 17.9373 17.178 18.5807 17.1697C19.2243 17.1617 20.0019 17.108 20.0025 16.9975C20.0025 16.9641 19.9437 16.9326 19.8414 16.9078L19.9654 16.7112C20.1321 16.7637 20.2777 16.8651 20.2774 17.0405C20.2758 17.3389 19.9013 17.3843 19.6583 17.4177Z" fill="white"/>
<path id="Vector_4" d="M28.8311 1.74371C29.0108 1.53332 28.7381 0.995172 28.2221 0.541894C27.7059 0.0888467 27.1418 -0.107991 26.9618 0.102398C26.782 0.312787 27.0548 0.850931 27.571 1.30398C28.087 1.75714 28.6513 1.95421 28.8311 1.74371Z" fill="#D34A47"/>
<path id="Vector_5" d="M22.0045 37.6524C21.8351 36.0005 25.5685 33.6081 24.6104 33.5315C22.5478 33.6511 21.5212 35.982 20.4834 38.4233C20.1031 39.318 18.8019 43.1333 17.9484 42.6636C17.0952 42.1941 19.0546 39.0568 19.6038 37.1936C18.9701 37.6647 16.6461 39.4951 16.0472 37.7809C15.0843 38.6099 13.0268 39.0591 13.2589 36.8813C12.7467 37.8012 11.597 39.0855 10.217 38.5518C8.4047 37.8512 11.2671 31.9987 11.9788 32.294C12.6907 32.5891 11.8352 33.9223 11.6111 34.44C11.1184 35.5794 10.5491 37.0117 10.9294 37.3049C11.5809 37.8072 13.3537 35.4046 13.3932 35.3518C13.7247 34.9077 14.6694 32.0023 15.4307 32.3359C16.1921 32.6695 13.5317 36.5056 14.5264 37.2668C14.727 37.4205 15.5479 37.1721 16.0472 36.6244C16.3703 36.2701 16.2592 35.4854 17.3361 32.8818C18.4131 30.2782 19.3729 27.0358 20.1115 27.2828C20.8501 27.5297 20.2413 29.1939 19.9764 29.8142C18.733 32.7259 16.5829 37.5363 17.5969 37.1721C18.6109 36.8081 19.1389 36.7867 20.1318 35.6088C21.1247 34.4308 21.0789 32.4906 21.7407 32.5318C22.4028 32.5732 22.2916 33.1953 22.1311 33.669C22.7825 32.9133 25.2187 31.3219 25.8069 32.8981C26.5035 34.7641 22.3213 37.4595 23.3641 37.3221C24.3808 37.1881 26.0279 36.1305 26.7311 35.1689L28.6669 17.5264C28.6669 17.5264 26.719 19.1606 14.3267 19.1606C1.9343 19.1606 0.187958 17.5604 0.187958 17.5604L1.83597 33.6638C2.71073 31.1434 4.78797 26.0454 8.06225 26.2165C9.55167 26.2944 11.54 29.2018 9.8368 29.3003C9.11588 29.3419 9.0427 27.8491 8.18901 27.6298C7.57299 27.4716 6.71534 27.9793 6.16105 28.5294C5.05565 29.6261 2.67822 33.9532 2.99235 36.1105C3.39257 38.8608 6.73607 35.1548 7.30179 34.0545C7.7002 33.2795 7.96936 30.9831 8.84072 31.224C9.71219 31.465 8.76471 33.8348 8.13305 35.9301C7.42346 38.2828 7.05042 40.7647 6.16105 40.4792C5.27157 40.1939 6.72043 37.1566 6.66798 36.6244C5.83197 37.4064 4.2918 39.386 2.32138 38.4062L3.34488 48.4063C3.34488 48.4063 6.0651 50.5852 14.2595 50.5852C22.454 50.5852 25.2749 48.4403 25.2749 48.4403L26.5458 36.8578C25.506 37.8842 22.2152 39.707 22.0045 37.6524Z" fill="#D34A47"/>
</g>
</g>
<defs>
<clipPath id="clip0_117435_192">
<rect width="29" height="65" fill="white"/>
</clipPath>
</defs>
</svg>
