<svg width="65" height="65" viewBox="0 0 65 65" fill="none" xmlns="http://www.w3.org/2000/svg">
<g id="Postgresql">
<path id="Vector" d="M63.7709 38.9228C63.393 37.7782 62.403 36.9809 61.1227 36.7896C60.5189 36.6995 59.8276 36.7379 59.0094 36.9066C57.5834 37.2008 56.5254 37.3128 55.7533 37.3345C58.6677 32.4139 61.0375 26.8028 62.4017 21.5208C64.6078 12.9799 63.4289 9.08903 62.0514 7.3291C58.4057 2.67077 53.0868 0.16827 46.67 0.0916977C43.2469 0.0498416 40.2419 0.725694 38.6743 1.21172C37.2147 0.954179 35.6454 0.810391 33.9987 0.7838C30.9119 0.734558 28.1846 1.40746 25.8543 2.79043C24.5641 2.35414 22.4935 1.7391 20.1022 1.34664C14.4783 0.423345 9.9455 1.14278 6.63001 3.48499C2.61527 6.32086 0.754157 11.2481 1.09836 18.1297C1.20768 20.3146 2.42988 26.9623 4.35427 33.2668C5.46026 36.8906 6.63961 39.8998 7.85959 42.2117C9.58972 45.49 11.441 47.4206 13.5193 48.1139C14.6841 48.5019 16.8005 48.7737 19.0265 46.9198C19.3087 47.2615 19.6852 47.601 20.1847 47.9164C20.8192 48.3165 21.595 48.6435 22.3699 48.8373C25.1621 49.5353 27.7777 49.3607 30.0091 48.3823C30.0229 48.7792 30.0335 49.1583 30.0423 49.4858C30.0571 50.0169 30.0719 50.5376 30.0913 51.0246C30.2235 54.3175 30.4476 56.8778 31.1114 58.6693C31.1478 58.7677 31.1968 58.9179 31.2485 59.0772C31.5797 60.0911 32.1334 61.7885 33.5422 63.1178C35.001 64.4949 36.7656 64.9171 38.3818 64.9171C39.1923 64.9171 39.9656 64.8108 40.644 64.6655C43.0618 64.1472 45.8078 63.3579 47.7942 60.5294C49.6723 57.8555 50.5853 53.8282 50.7505 47.4826C50.7719 47.3031 50.7916 47.1318 50.8106 46.9685L50.8499 46.6332L51.2924 46.6721L51.4064 46.6797C53.869 46.792 56.8802 46.2698 58.7295 45.4107C60.1907 44.7327 64.8735 42.2604 63.7709 38.9228Z" fill="black"/>
<path id="Vector_2" d="M59.5602 39.5718C52.2378 41.0823 51.7343 38.6032 51.7343 38.6032C59.4654 27.1315 62.6974 12.5697 59.9086 9.00582C52.2996 -0.715866 39.1285 3.8819 38.9086 4.00107L38.838 4.01387C37.3912 3.71349 35.7724 3.53474 33.9526 3.50495C30.6396 3.45078 28.1263 4.37358 26.2191 5.81983C26.2191 5.81983 2.7231 -3.85975 3.81603 17.9935C4.04846 22.6425 10.4795 53.1706 18.15 43.9497C20.9536 40.5778 23.6627 37.727 23.6627 37.727C25.008 38.6207 26.6187 39.0767 28.3072 38.913L28.4385 38.8017C28.3976 39.2202 28.4163 39.6297 28.4909 40.1145C26.5148 42.3223 27.0956 42.7098 23.1454 43.523C19.1482 44.3469 21.4963 45.8133 23.0294 46.1969C24.8881 46.6615 29.1879 47.3199 32.0933 43.2527L31.9775 43.7168C32.7516 44.337 33.2953 47.7505 33.2042 50.8451C33.1131 53.9395 33.0522 56.0641 33.6621 57.7236C34.2725 59.383 34.8804 63.1168 40.0735 62.0042C44.4125 61.0743 46.6611 58.6646 46.9741 54.6449C47.1959 51.7874 47.6984 52.2099 47.7299 49.6549L48.133 48.4456C48.5976 44.5719 48.2068 43.3221 50.88 43.9034L51.53 43.9606C53.4972 44.0499 56.0726 43.6439 57.5841 42.9415C60.8385 41.4312 62.7688 38.9093 59.5597 39.5718H59.5602Z" fill="#336791"/>
<path id="Vector_3" d="M27.5945 20.0724C26.9346 19.9806 26.3371 20.0655 26.0347 20.2945C25.8648 20.4233 25.8122 20.5725 25.7979 20.6752C25.76 20.9472 25.9505 21.2481 26.0677 21.4032C26.3991 21.8425 26.8832 22.1443 27.3623 22.2108C27.4317 22.2206 27.5009 22.2251 27.5696 22.2251C28.3686 22.2251 29.0951 21.6029 29.1592 21.1437C29.2392 20.5686 28.4043 20.185 27.5945 20.0724ZM49.4542 20.0907C49.3912 19.6398 48.589 19.5113 47.8277 19.6172C47.0674 19.7231 46.3302 20.0663 46.3918 20.5181C46.441 20.8694 47.0755 21.4692 47.8265 21.4692C47.89 21.4692 47.954 21.465 48.0185 21.4559C48.5198 21.3865 48.8876 21.0681 49.0625 20.8847C49.3284 20.605 49.4825 20.2933 49.4542 20.0907Z" fill="white"/>
<path id="Vector_4" d="M61.9967 39.4002C61.7175 38.5559 60.8188 38.2844 59.3258 38.5926C54.8927 39.5075 53.3051 38.8738 52.7839 38.4899C56.2297 33.2407 59.0643 26.8953 60.5935 20.9751C61.3179 18.1708 61.718 15.5664 61.7507 13.4435C61.7869 11.1136 61.39 9.40145 60.5716 8.35554C57.2719 4.13916 52.4289 1.87746 46.5666 1.81541C42.5363 1.77011 39.1312 2.80149 38.4711 3.09153C37.081 2.74585 35.5656 2.53361 33.9157 2.50653C30.8902 2.45753 28.275 3.18189 26.1098 4.65842C25.1693 4.30831 22.7386 3.4739 19.7661 2.99501C14.6272 2.16774 10.5435 2.7946 7.62935 4.85909C4.15209 7.32268 2.54679 11.7264 2.85776 17.9477C2.9624 20.0408 4.15505 26.4797 6.03709 32.6461C8.51448 40.7622 11.2075 45.3568 14.041 46.302C14.3726 46.4126 14.755 46.4899 15.1767 46.4899C16.2103 46.4899 17.4776 46.024 18.7961 44.4389C20.4042 42.5097 22.0677 40.6274 23.7846 38.7943C24.8984 39.3921 26.1221 39.7259 27.3736 39.7594C27.3761 39.7922 27.3793 39.8249 27.3822 39.8574C27.1668 40.1143 26.9558 40.3749 26.7494 40.6391C25.8823 41.7399 25.7018 41.9692 22.9105 42.5438C22.1165 42.7078 20.0077 43.1424 19.9766 44.6206C19.9432 46.2358 22.4695 46.9141 22.7574 46.986C23.7604 47.2371 24.7268 47.361 25.6484 47.361C27.8897 47.361 29.8621 46.6243 31.4383 45.199C31.3898 50.9569 31.6299 56.6306 32.3212 58.3593C32.8875 59.7745 34.2707 63.233 38.64 63.2328C39.2812 63.2328 39.9868 63.1582 40.7631 62.9917C45.3232 62.0143 47.3035 59.9988 48.0694 55.5554C48.4794 53.1807 49.1828 47.5102 49.5137 44.4685C50.212 44.6864 51.1109 44.7861 52.0827 44.7858C54.1095 44.7858 56.4483 44.3552 57.915 43.6744C59.5626 42.9092 62.5359 41.0316 61.9967 39.4002ZM51.1372 18.8464C51.1222 19.7443 50.9986 20.5595 50.8676 21.4104C50.7266 22.3256 50.5808 23.2718 50.5441 24.4204C50.5079 25.5382 50.6475 26.7003 50.7825 27.8243C51.0553 30.0944 51.3352 32.4314 50.2516 34.7374C50.0716 34.4185 49.9113 34.0889 49.7715 33.7504C49.6368 33.4239 49.3443 32.8994 48.9393 32.1736C47.3638 29.3481 43.6743 22.7314 45.563 20.0314C46.1256 19.2278 47.5534 18.4015 51.1372 18.8464ZM46.7931 3.63369C52.0458 3.74965 56.2008 5.71467 59.1426 9.47384C61.3989 12.3572 58.9144 25.4771 51.7218 36.7958C51.6494 36.7038 51.5767 36.6121 51.5036 36.5207L51.4125 36.407C53.2712 33.3375 52.9078 30.3004 52.5842 27.6079C52.4513 26.5029 52.3257 25.4592 52.3577 24.4787C52.3907 23.4397 52.5281 22.5484 52.6611 21.6867C52.8243 20.6248 52.9905 19.5259 52.9447 18.2306C52.9789 18.0947 52.9927 17.9342 52.9747 17.7436C52.8578 16.5015 51.4396 12.7839 48.5491 9.41918C46.9679 7.57875 44.6621 5.51918 41.5138 4.13005C42.868 3.84937 44.7197 3.58765 46.7931 3.63369ZM17.4008 43.2788C15.9481 45.0254 14.945 44.6905 14.6151 44.5807C12.4657 43.8638 9.97156 39.3207 7.77264 32.1165C5.86992 25.8829 4.75802 19.6146 4.66988 17.8569C4.39215 12.2979 5.73967 8.42375 8.67526 6.34178C13.4528 2.9539 21.3074 4.9817 24.4636 6.01013C24.4183 6.05494 24.371 6.09679 24.3262 6.14234C19.1469 11.3729 19.2698 20.3094 19.2826 20.8557C19.2821 21.0665 19.2998 21.3649 19.3239 21.7753C19.4131 23.2785 19.579 26.0759 19.1358 29.2439C18.7242 32.1879 19.6317 35.0693 21.6253 37.1496C21.8299 37.3626 22.0449 37.5654 22.2696 37.7572C21.3823 38.7076 19.4537 40.8093 17.4008 43.2788ZM22.9354 35.8941C21.3286 34.2174 20.5988 31.8853 20.9329 29.4951C21.4007 26.1486 21.2281 23.2339 21.1353 21.668C21.1223 21.4489 21.1107 21.2568 21.104 21.1054C21.8607 20.4345 25.367 18.5559 27.8675 19.1288C29.0084 19.39 29.7037 20.1671 29.9928 21.5035C31.4888 28.4228 30.1908 31.3067 29.1478 33.6243C28.9329 34.1017 28.7297 34.553 28.5564 35.0198L28.422 35.3808C28.0817 36.2932 27.7651 37.1417 27.5688 37.9473C25.8606 37.9424 24.1989 37.2126 22.9354 35.8939V35.8941ZM23.1976 45.2256C22.6988 45.101 22.2502 44.8846 21.987 44.7051C22.2068 44.6017 22.5981 44.4608 23.2766 44.321C26.5604 43.6451 27.0675 43.168 28.175 41.7619C28.4289 41.4393 28.7167 41.0739 29.1153 40.6288L29.1158 40.6283C29.7094 39.9635 29.981 40.0763 30.4734 40.2806C30.8725 40.4456 31.2613 40.9459 31.4189 41.4964C31.4935 41.7564 31.5772 42.2498 31.3031 42.6339C28.9897 45.8731 25.6186 45.8315 23.1976 45.2256ZM40.3829 61.2175C36.3657 62.0783 34.9434 60.0286 34.0061 57.6854C33.4011 56.1726 33.1037 49.3511 33.3147 41.8177C33.3174 41.7175 33.3031 41.6208 33.2755 41.5297C33.2509 41.3498 33.2134 41.1719 33.1633 40.9974C32.8496 39.9012 32.0851 38.9843 31.168 38.6042C30.8036 38.4533 30.1349 38.1763 29.3312 38.3819C29.5026 37.6757 29.7998 36.8782 30.1221 36.0148L30.2572 35.6516C30.4094 35.2422 30.6004 34.8179 30.8023 34.3688C31.8938 31.9441 33.3886 28.623 31.7663 21.1202C31.1586 18.3099 29.1293 16.9375 26.0532 17.2564C24.209 17.4472 22.5217 18.1912 21.6802 18.6179C21.4992 18.7095 21.3338 18.7981 21.1791 18.8843C21.414 16.0529 22.3014 10.7613 25.6208 7.41329C27.7109 5.30571 30.4943 4.26473 33.8857 4.32087C40.5679 4.43018 44.8529 7.85943 47.2712 10.7172C49.3552 13.1796 50.4836 15.6602 50.9339 16.9981C47.5472 16.6536 45.2439 17.3221 44.0764 18.9914C41.5362 22.6226 45.466 29.6701 47.3547 33.0573C47.7011 33.678 48 34.2145 48.0941 34.4425C48.7091 35.933 49.5054 36.9282 50.0867 37.6545C50.2649 37.8771 50.4378 38.093 50.5692 38.2816C49.5435 38.5773 47.7011 39.2606 47.869 42.6758C47.7336 44.3894 46.7707 52.4125 46.2815 55.2471C45.6356 58.992 44.2576 60.3868 40.3829 61.2178V61.2175ZM57.151 42.0287C56.1021 42.5155 54.3469 42.8806 52.6795 42.9592C50.8379 43.0454 49.9003 42.7529 49.6797 42.5729C49.5763 40.4446 50.3683 40.2223 51.2067 39.9869C51.3384 39.95 51.4669 39.9138 51.591 39.8704C51.6681 39.9332 51.7525 39.9955 51.8451 40.0566C53.3253 41.0336 55.9655 41.1389 59.6929 40.3695L59.7337 40.3614C59.231 40.8314 58.3707 41.4622 57.151 42.0287Z" fill="white"/>
</g>
</svg>
