<svg width="30" height="30" viewBox="0 0 30 30" fill="none" xmlns="http://www.w3.org/2000/svg">
<g clip-path="url(#clip0_117435_202)">
<path fill-rule="evenodd" clip-rule="evenodd" d="M15 0.370117C6.71625 0.370117 0 7.25488 0 15.7493C0 22.5444 4.2975 28.309 10.2575 30.3429C11.0075 30.4852 11.2825 30.0097 11.2825 29.6034C11.2825 29.2369 11.2688 28.0258 11.2625 26.7403C7.09 27.6708 6.20875 24.9256 6.20875 24.9256C5.52625 23.148 4.54375 22.6751 4.54375 22.6751C3.1825 21.7203 4.64625 21.7408 4.64625 21.7408C6.1525 21.8497 6.945 23.3261 6.945 23.3261C8.2825 25.6766 10.4538 24.9974 11.31 24.6039C11.445 23.6094 11.8338 22.9314 12.2625 22.5469C8.93125 22.1586 5.42875 20.8398 5.42875 14.947C5.42875 13.2681 6.015 11.8955 6.975 10.819C6.81875 10.4307 6.305 8.86713 7.12 6.74864C7.12 6.74864 8.38 6.33597 11.2463 8.32501C12.4425 7.98411 13.725 7.81365 15 7.80724C16.275 7.81365 17.5588 7.98411 18.7575 8.32501C21.62 6.33469 22.8788 6.74864 22.8788 6.74864C23.695 8.86713 23.1813 10.4307 23.0263 10.819C23.9875 11.8955 24.57 13.2681 24.57 14.947C24.57 20.8539 21.0613 22.1548 17.7213 22.5354C18.2588 23.0122 18.7388 23.949 18.7388 25.3831C18.7388 27.4414 18.7213 29.0972 18.7213 29.6034C18.7213 30.0123 18.9913 30.4929 19.7513 30.3416C25.7088 28.3052 30.0013 22.5431 30.0013 15.7506C30 7.25616 23.2838 0.370117 15 0.370117Z" fill="black"/>
<path d="M5.68123 21.9078C5.64873 21.9828 5.53123 22.0053 5.42373 21.954C5.31498 21.9053 5.25373 21.8028 5.28873 21.729C5.32123 21.6528 5.43873 21.6315 5.54748 21.6828C5.65623 21.7303 5.71873 21.8328 5.68123 21.9078Z" fill="black"/>
<path d="M6.28874 22.5852C6.21749 22.6514 6.07749 22.6202 5.98249 22.5164C5.88374 22.4114 5.86624 22.2714 5.93874 22.2052C6.01249 22.1389 6.14749 22.1702 6.24624 22.2752C6.34499 22.3789 6.36374 22.5177 6.28874 22.5852Z" fill="black"/>
<path d="M6.88002 23.4488C6.78752 23.5126 6.63752 23.4526 6.54502 23.3201C6.45252 23.1863 6.45252 23.0263 6.54752 22.9626C6.64002 22.8988 6.78877 22.9563 6.88252 23.0888C6.97377 23.2238 6.97377 23.3838 6.88002 23.4488Z" fill="black"/>
<path d="M7.69 24.2838C7.6075 24.375 7.4325 24.35 7.305 24.2263C7.17375 24.105 7.1375 23.9338 7.22 23.8425C7.30375 23.7513 7.48 23.7775 7.60875 23.9C7.73875 24.0213 7.7775 24.1938 7.69 24.2838Z" fill="black"/>
<path d="M8.80872 24.7678C8.77247 24.8853 8.60372 24.9391 8.43372 24.8891C8.26372 24.8378 8.15247 24.7003 8.18747 24.5816C8.22247 24.4628 8.39247 24.4078 8.56372 24.4616C8.73247 24.5116 8.84372 24.6491 8.80872 24.7678Z" fill="black"/>
<path d="M10.0362 24.8575C10.04 24.9813 9.89624 25.0838 9.71749 25.0863C9.53874 25.09 9.39249 24.99 9.39124 24.8688C9.39124 24.7438 9.53249 24.6425 9.71124 24.6388C9.88999 24.635 10.0362 24.735 10.0362 24.8575Z" fill="black"/>
<path d="M11.1788 24.6639C11.2 24.7839 11.0763 24.9089 10.8988 24.9414C10.725 24.9739 10.5638 24.8989 10.5413 24.7789C10.52 24.6552 10.6463 24.5314 10.82 24.4989C10.9963 24.4677 11.1563 24.5402 11.1788 24.6639Z" fill="black"/>
</g>
<defs>
<clipPath id="clip0_117435_202">
<rect width="30" height="30" fill="white"/>
</clipPath>
</defs>
</svg>
