<svg width="30" height="30" viewBox="0 0 30 30" fill="none" xmlns="http://www.w3.org/2000/svg">
<path d="M27.895 2.105C25.79 0 22.4013 0 15.625 0L14.375 0C7.59875 0 4.21 0 2.105 2.105C0 4.21 0 7.59875 0 14.375L0 15.625C0 22.4013 0 25.7887 2.105 27.895C4.21 30.0012 7.59875 30 14.375 30H15.625C22.4013 30 25.7887 30 27.895 27.895C30 25.79 30 22.4013 30 15.625V14.375C30 7.59875 30 4.21 27.895 2.105ZM24.3787 21.25H22.1912C21.3575 21.25 21.1125 20.585 19.6287 19.1012C18.33 17.85 17.7738 17.6875 17.45 17.6875C17.0088 17.6875 16.8775 17.8125 16.8775 18.4375V20.3988C16.8775 20.9363 16.7062 21.25 15.315 21.25C12.9975 21.25 10.45 19.8425 8.64125 17.2475C5.92875 13.4463 5.1875 10.5725 5.1875 9.99375C5.1875 9.66875 5.3125 9.375 5.9375 9.375H8.12625C8.685 9.375 8.895 9.62 9.105 10.225C10.175 13.3413 11.98 16.065 12.7213 16.065C12.9987 16.065 13.1263 15.9363 13.1263 15.2313L13.1263 12.01C13.045 10.5275 12.2563 10.405 12.2563 9.8775C12.2563 9.63375 12.465 9.375 12.8125 9.375L16.2513 9.375C16.715 9.375 16.8763 9.6225 16.8763 10.1787V14.5125C16.8763 14.975 17.0775 15.1375 17.2162 15.1375C17.495 15.1375 17.7262 14.975 18.2362 14.465C19.8125 12.7037 20.925 9.9925 20.925 9.9925C21.065 9.6675 21.32 9.37375 21.8775 9.37375H24.065C24.7263 9.37375 24.8663 9.71375 24.7262 10.1775C24.4475 11.4525 21.7825 15.2063 21.7825 15.2063C21.55 15.5775 21.4575 15.7625 21.7825 16.18C22.015 16.505 22.7788 17.1537 23.2887 17.7563C24.2288 18.8137 24.9375 19.705 25.135 20.32C25.3175 20.9375 25.0037 21.25 24.3787 21.25Z" fill="black"/>
</svg>
